<svg width="100%" height="100%" viewBox="42.9697 28.5 212.139 177.849" version="1.1" xmlns="http://www.w3.org/2000/svg" xmlns:xlink="http://www.w3.org/1999/xlink" xmlns:t="http://www.tagul.com/schema">
  <defs>
    <symbol overflow="visible" id="f0g67">
      <path d="M 199 -707 Q 225 -707 248 -697 Q 271 -687 288 -670 Q 305 -653 315 -630 Q 325 -607 325 -581 L 325 -501 Q 325 -487 312 -483 L 221 -469 Q 208 -465 208 -479 L 208 -576 Q 208 -586 201 -593 Q 194 -600 184 -600 L 176 -600 Q 166 -600 159 -593 Q 152 -586 152 -576 L 152 -124 Q 152 -114 159 -107 Q 166 -100 176 -100 L 184 -100 Q 194 -100 201 -107 Q 208 -114 208 -124 L 208 -264 Q 208 -278 221 -274 L 312 -262 Q 325 -258 325 -244 L 325 -119 Q 325 -93 315 -70 Q 305 -47 288 -30 Q 271 -13 248 -3 Q 225 7 199 7 L 161 7 Q 135 7 112 -3 Q 89 -13 72 -30 Q 55 -47 45 -70 Q 35 -93 35 -119 L 35 -581 Q 35 -607 45 -630 Q 55 -653 72 -670 Q 89 -687 112 -697 Q 135 -707 161 -707 L 199 -707 L 199 -707 "/>
    </symbol>
    <symbol overflow="visible" id="f0g114">
      <path d="M 162 -14 Q 162 0 147 0 L 58 0 Q 45 0 45 -14 L 45 -586 Q 45 -600 59 -600 L 209 -600 Q 235 -600 258 -590 Q 281 -580 298 -563 Q 315 -546 325 -523 Q 335 -500 335 -474 L 335 -351 Q 335 -314 313 -284 Q 291 -255 260 -239 L 355 -14 Q 358 0 345 0 L 254 0 Q 248 0 242 -4 Q 237 -8 235 -14 L 162 -199 L 162 -14 M 162 -332 L 194 -332 Q 204 -332 211 -339 Q 218 -346 218 -356 L 218 -469 Q 218 -479 211 -486 Q 204 -493 194 -493 L 162 -493 L 162 -332 "/>
    </symbol>
    <symbol overflow="visible" id="f0g111">
      <path d="M 325 -119 Q 325 -93 315 -70 Q 305 -47 288 -30 Q 271 -13 248 -3 Q 225 7 199 7 L 161 7 Q 135 7 112 -3 Q 89 -13 72 -30 Q 55 -47 45 -70 Q 35 -93 35 -119 L 35 -481 Q 35 -507 45 -530 Q 55 -553 72 -570 Q 89 -587 112 -597 Q 135 -607 161 -607 L 199 -607 Q 225 -607 248 -597 Q 271 -587 288 -570 Q 305 -553 315 -530 Q 325 -507 325 -481 L 325 -119 M 208 -476 Q 208 -486 201 -493 Q 194 -500 184 -500 L 176 -500 Q 166 -500 159 -493 Q 152 -486 152 -476 L 152 -124 Q 152 -114 159 -107 Q 166 -100 176 -100 L 184 -100 Q 194 -100 201 -107 Q 208 -114 208 -124 L 208 -476 "/>
    </symbol>
    <symbol overflow="visible" id="f0g115">
      <path d="M 194 -607 Q 220 -607 243 -597 Q 266 -587 283 -570 Q 300 -553 310 -530 Q 320 -507 320 -481 L 320 -443 Q 320 -429 307 -425 L 216 -401 Q 203 -397 203 -411 L 203 -476 Q 203 -486 196 -493 Q 189 -500 179 -500 L 171 -500 Q 161 -500 154 -493 Q 147 -486 147 -476 L 147 -415 Q 148 -404 151 -396 Q 154 -388 162 -380 L 293 -282 Q 309 -268 313 -253 Q 318 -239 320 -221 L 320 -119 Q 320 -93 310 -70 Q 300 -47 283 -30 Q 266 -13 243 -3 Q 220 7 194 7 L 156 7 Q 130 7 107 -3 Q 84 -13 67 -30 Q 50 -47 40 -70 Q 30 -93 30 -119 L 30 -175 Q 30 -189 43 -193 L 134 -217 Q 147 -221 147 -207 L 147 -124 Q 147 -114 154 -107 Q 161 -100 171 -100 L 179 -100 Q 189 -100 196 -107 Q 203 -114 203 -124 L 203 -186 Q 202 -199 199 -209 Q 196 -219 187 -227 L 58 -326 Q 43 -340 36 -354 Q 30 -368 30 -391 L 30 -481 Q 30 -507 40 -530 Q 50 -553 67 -570 Q 84 -587 107 -597 Q 130 -607 156 -607 L 194 -607 L 194 -607 "/>
    </symbol>
    <symbol overflow="visible" id="f0g105">
      <path d="M 162 -14 Q 162 0 148 0 L 59 0 Q 45 0 45 -14 L 45 -586 Q 45 -600 59 -600 L 148 -600 Q 162 -600 162 -586 L 162 -14 "/>
    </symbol>
    <symbol overflow="visible" id="f0g110">
      <path d="M 351 -600 Q 365 -600 365 -586 L 365 -14 Q 365 0 351 0 L 287 0 Q 281 0 275 -4 Q 270 -8 268 -13 L 162 -274 L 162 -14 Q 162 0 148 0 L 59 0 Q 45 0 45 -14 L 45 -586 Q 45 -600 59 -600 L 125 -600 Q 131 -600 136 -596 Q 142 -592 144 -587 L 248 -296 L 248 -586 Q 248 -600 262 -600 L 351 -600 L 351 -600 "/>
    </symbol>
    <symbol overflow="visible" id="f0g103">
      <path d="M 199 -607 Q 225 -607 248 -597 Q 271 -587 288 -570 Q 305 -553 315 -530 Q 325 -507 325 -481 L 325 -459 Q 325 -445 312 -441 L 221 -408 Q 208 -404 208 -418 L 208 -476 Q 208 -486 201 -493 Q 194 -500 184 -500 L 176 -500 Q 166 -500 159 -493 Q 152 -486 152 -476 L 152 -124 Q 152 -114 159 -107 Q 166 -100 176 -100 L 184 -100 Q 194 -100 201 -107 Q 208 -114 208 -124 L 208 -232 L 180 -232 L 180 -346 L 311 -346 Q 325 -346 325 -332 L 325 -119 Q 325 -93 315 -70 Q 305 -47 288 -30 Q 271 -13 248 -3 Q 225 7 199 7 L 161 7 Q 135 7 112 -3 Q 89 -13 72 -30 Q 55 -47 45 -70 Q 35 -93 35 -119 L 35 -481 Q 35 -507 45 -530 Q 55 -553 72 -570 Q 89 -587 112 -597 Q 135 -607 161 -607 L 199 -607 L 199 -607 "/>
    </symbol>
    <symbol overflow="visible" id="f0g87">
      <path d="M 546 -700 Q 560 -700 558 -686 L 440 -14 Q 438 0 424 0 L 336 0 Q 322 0 320 -14 L 285 -263 L 284 -263 L 249 -14 Q 247 0 233 0 L 145 0 Q 131 0 129 -14 L 11 -686 Q 9 -700 23 -700 L 131 -700 Q 144 -700 146 -686 L 191 -278 L 195 -278 L 229 -686 Q 231 -700 244 -700 L 325 -700 Q 338 -700 340 -686 L 374 -278 L 378 -278 L 423 -686 Q 425 -700 438 -700 L 546 -700 L 546 -700 "/>
    </symbol>
    <symbol overflow="visible" id="f0g100">
      <path d="M 209 -600 Q 235 -600 258 -590 Q 281 -580 298 -563 Q 315 -546 325 -523 Q 335 -500 335 -474 L 335 -126 Q 335 -100 325 -77 Q 315 -54 298 -37 Q 281 -20 258 -10 Q 235 0 209 0 L 59 0 Q 45 0 45 -14 L 45 -586 Q 45 -600 59 -600 L 209 -600 M 218 -469 Q 218 -479 211 -486 Q 204 -493 194 -493 L 162 -493 L 162 -107 L 194 -107 Q 204 -107 211 -114 Q 218 -121 218 -131 L 218 -469 "/>
    </symbol>
  </defs>
  <a xlink:href="" target="_top">
    <t:tag>Crossing</t:tag>
    <g transform="matrix(0.045211,0.045211,-0.045211,0.045211,43.2272,86.0833)" fill="#232625">
      <use xlink:href="#f0g67" x="0" y="0"/>
      <use xlink:href="#f0g114" x="355" y="0"/>
      <use xlink:href="#f0g111" x="731" y="0"/>
      <use xlink:href="#f0g115" x="1091" y="0"/>
      <use xlink:href="#f0g115" x="1441" y="0"/>
      <use xlink:href="#f0g105" x="1791" y="0"/>
      <use xlink:href="#f0g110" x="1998" y="0"/>
      <use xlink:href="#f0g103" x="2408" y="0"/>
    </g>
  </a>
  <a xlink:href="" target="_top">
    <t:tag>Words</t:tag>
    <g transform="matrix(0.045211,-0.045211,0.045211,0.045211,165.842,142.376)" fill="#232625">
      <use xlink:href="#f0g87" x="0" y="0"/>
      <use xlink:href="#f0g111" x="559" y="0"/>
      <use xlink:href="#f0g114" x="919" y="0"/>
      <use xlink:href="#f0g100" x="1295" y="0"/>
      <use xlink:href="#f0g115" x="1665" y="0"/>
    </g>
  </a>
</svg>