<svg width="100%" height="100%" viewBox="47.4504 31.0148 122.348 50.2813" version="1.1" xmlns="http://www.w3.org/2000/svg" xmlns:xlink="http://www.w3.org/1999/xlink" xmlns:t="http://www.tagul.com/schema">
  <defs>
    <symbol overflow="visible" id="f0g67">
      <path d="M 199 -707 Q 225 -707 248 -697 Q 271 -687 288 -670 Q 305 -653 315 -630 Q 325 -607 325 -581 L 325 -501 Q 325 -487 312 -483 L 221 -469 Q 208 -465 208 -479 L 208 -576 Q 208 -586 201 -593 Q 194 -600 184 -600 L 176 -600 Q 166 -600 159 -593 Q 152 -586 152 -576 L 152 -124 Q 152 -114 159 -107 Q 166 -100 176 -100 L 184 -100 Q 194 -100 201 -107 Q 208 -114 208 -124 L 208 -264 Q 208 -278 221 -274 L 312 -262 Q 325 -258 325 -244 L 325 -119 Q 325 -93 315 -70 Q 305 -47 288 -30 Q 271 -13 248 -3 Q 225 7 199 7 L 161 7 Q 135 7 112 -3 Q 89 -13 72 -30 Q 55 -47 45 -70 Q 35 -93 35 -119 L 35 -581 Q 35 -607 45 -630 Q 55 -653 72 -670 Q 89 -687 112 -697 Q 135 -707 161 -707 L 199 -707 L 199 -707 "/>
    </symbol>
    <symbol overflow="visible" id="f0g117">
      <path d="M 311 -600 Q 325 -600 325 -586 L 325 -119 Q 325 -93 315 -70 Q 305 -47 288 -30 Q 271 -13 248 -3 Q 225 7 199 7 L 161 7 Q 135 7 112 -3 Q 89 -13 72 -30 Q 55 -47 45 -70 Q 35 -93 35 -119 L 35 -586 Q 35 -600 49 -600 L 138 -600 Q 152 -600 152 -586 L 152 -124 Q 152 -114 159 -107 Q 166 -100 176 -100 L 184 -100 Q 194 -100 201 -107 Q 208 -114 208 -124 L 208 -586 Q 208 -600 222 -600 L 311 -600 L 311 -600 "/>
    </symbol>
    <symbol overflow="visible" id="f0g115">
      <path d="M 194 -607 Q 220 -607 243 -597 Q 266 -587 283 -570 Q 300 -553 310 -530 Q 320 -507 320 -481 L 320 -443 Q 320 -429 307 -425 L 216 -401 Q 203 -397 203 -411 L 203 -476 Q 203 -486 196 -493 Q 189 -500 179 -500 L 171 -500 Q 161 -500 154 -493 Q 147 -486 147 -476 L 147 -415 Q 148 -404 151 -396 Q 154 -388 162 -380 L 293 -282 Q 309 -268 313 -253 Q 318 -239 320 -221 L 320 -119 Q 320 -93 310 -70 Q 300 -47 283 -30 Q 266 -13 243 -3 Q 220 7 194 7 L 156 7 Q 130 7 107 -3 Q 84 -13 67 -30 Q 50 -47 40 -70 Q 30 -93 30 -119 L 30 -175 Q 30 -189 43 -193 L 134 -217 Q 147 -221 147 -207 L 147 -124 Q 147 -114 154 -107 Q 161 -100 171 -100 L 179 -100 Q 189 -100 196 -107 Q 203 -114 203 -124 L 203 -186 Q 202 -199 199 -209 Q 196 -219 187 -227 L 58 -326 Q 43 -340 36 -354 Q 30 -368 30 -391 L 30 -481 Q 30 -507 40 -530 Q 50 -553 67 -570 Q 84 -587 107 -597 Q 130 -607 156 -607 L 194 -607 L 194 -607 "/>
    </symbol>
    <symbol overflow="visible" id="f0g116">
      <path d="M 297 -600 Q 311 -600 311 -586 L 311 -497 Q 311 -483 297 -483 L 226 -483 L 226 -14 Q 226 0 212 0 L 123 0 Q 118 0 113 -4 Q 109 -8 109 -14 L 109 -483 L 39 -483 Q 25 -483 25 -497 L 25 -586 Q 25 -600 39 -600 L 297 -600 L 297 -600 "/>
    </symbol>
    <symbol overflow="visible" id="f0g111">
      <path d="M 325 -119 Q 325 -93 315 -70 Q 305 -47 288 -30 Q 271 -13 248 -3 Q 225 7 199 7 L 161 7 Q 135 7 112 -3 Q 89 -13 72 -30 Q 55 -47 45 -70 Q 35 -93 35 -119 L 35 -481 Q 35 -507 45 -530 Q 55 -553 72 -570 Q 89 -587 112 -597 Q 135 -607 161 -607 L 199 -607 Q 225 -607 248 -597 Q 271 -587 288 -570 Q 305 -553 315 -530 Q 325 -507 325 -481 L 325 -119 M 208 -476 Q 208 -486 201 -493 Q 194 -500 184 -500 L 176 -500 Q 166 -500 159 -493 Q 152 -486 152 -476 L 152 -124 Q 152 -114 159 -107 Q 166 -100 176 -100 L 184 -100 Q 194 -100 201 -107 Q 208 -114 208 -124 L 208 -476 "/>
    </symbol>
    <symbol overflow="visible" id="f0g109">
      <path d="M 421 -600 Q 435 -600 435 -586 L 435 -14 Q 435 0 421 0 L 325 0 Q 311 0 311 -14 L 311 -280 L 245 -42 Q 243 -37 240 -37 Q 237 -37 235 -42 L 169 -280 L 169 -14 Q 169 0 155 0 L 59 0 Q 45 0 45 -14 L 45 -586 Q 45 -600 59 -600 L 144 -600 Q 150 -600 154 -595 Q 159 -591 161 -586 L 240 -278 L 319 -586 Q 321 -591 325 -595 Q 330 -600 336 -600 L 421 -600 L 421 -600 "/>
    </symbol>
  </defs>
  <a xlink:href="" target="_top">
    <t:tag>Custom</t:tag>
    <g transform="matrix(0.0513661,0,0,0.0513661,52.0446,74.2364)" fill="#2e5510">
      <use xlink:href="#f0g67" x="0" y="0"/>
      <use xlink:href="#f0g117" x="355" y="0"/>
      <use xlink:href="#f0g115" x="715" y="0"/>
      <use xlink:href="#f0g116" x="1050" y="0"/>
      <use xlink:href="#f0g111" x="1376" y="0"/>
      <use xlink:href="#f0g109" x="1736" y="0"/>
    </g>
  </a>
</svg>