<svg width="100%" height="100%" viewBox="45 10 155.761 130.179" version="1.1" xmlns="http://www.w3.org/2000/svg" xmlns:xlink="http://www.w3.org/1999/xlink" xmlns:t="http://www.tagul.com/schema">
  <defs>
    <symbol overflow="visible" id="f0g83">
      <path d="M 194 -707 Q 220 -707 243 -697 Q 266 -687 283 -670 Q 300 -653 310 -630 Q 320 -607 320 -581 L 320 -543 Q 320 -529 307 -525 L 216 -501 Q 203 -497 203 -511 L 203 -576 Q 203 -586 196 -593 Q 189 -600 179 -600 L 171 -600 Q 161 -600 154 -593 Q 147 -586 147 -576 L 147 -485 Q 148 -474 151 -466 Q 154 -458 162 -450 L 293 -352 Q 309 -338 313 -323 Q 318 -309 320 -291 L 320 -119 Q 320 -93 310 -70 Q 300 -47 283 -30 Q 266 -13 243 -3 Q 220 7 194 7 L 156 7 Q 130 7 107 -3 Q 84 -13 67 -30 Q 50 -47 40 -70 Q 30 -93 30 -119 L 30 -215 Q 30 -229 43 -233 L 134 -257 Q 147 -261 147 -247 L 147 -124 Q 147 -114 154 -107 Q 161 -100 171 -100 L 179 -100 Q 189 -100 196 -107 Q 203 -114 203 -124 L 203 -256 Q 202 -269 199 -279 Q 196 -289 187 -297 L 58 -396 Q 43 -410 36 -424 Q 30 -438 30 -461 L 30 -581 Q 30 -607 40 -630 Q 50 -653 67 -670 Q 84 -687 107 -697 Q 130 -707 156 -707 L 194 -707 L 194 -707 "/>
    </symbol>
    <symbol overflow="visible" id="f0g108">
      <path d="M 291 -117 Q 305 -117 305 -103 L 305 -14 Q 305 0 291 0 L 156 0 L 154 0 L 153 0 L 64 0 Q 50 0 50 -14 L 50 -586 Q 50 -600 64 -600 L 153 -600 Q 167 -600 167 -586 L 167 -117 L 291 -117 L 291 -117 "/>
    </symbol>
    <symbol overflow="visible" id="f0g111">
      <path d="M 325 -119 Q 325 -93 315 -70 Q 305 -47 288 -30 Q 271 -13 248 -3 Q 225 7 199 7 L 161 7 Q 135 7 112 -3 Q 89 -13 72 -30 Q 55 -47 45 -70 Q 35 -93 35 -119 L 35 -481 Q 35 -507 45 -530 Q 55 -553 72 -570 Q 89 -587 112 -597 Q 135 -607 161 -607 L 199 -607 Q 225 -607 248 -597 Q 271 -587 288 -570 Q 305 -553 315 -530 Q 325 -507 325 -481 L 325 -119 M 208 -476 Q 208 -486 201 -493 Q 194 -500 184 -500 L 176 -500 Q 166 -500 159 -493 Q 152 -486 152 -476 L 152 -124 Q 152 -114 159 -107 Q 166 -100 176 -100 L 184 -100 Q 194 -100 201 -107 Q 208 -114 208 -124 L 208 -476 "/>
    </symbol>
    <symbol overflow="visible" id="f0g112">
      <path d="M 209 -600 Q 235 -600 258 -590 Q 281 -580 298 -563 Q 315 -546 325 -523 Q 335 -500 335 -474 L 335 -341 Q 335 -315 325 -292 Q 315 -269 298 -252 Q 281 -235 258 -225 Q 235 -215 209 -215 L 162 -215 L 162 -14 Q 162 0 148 0 L 59 0 Q 45 0 45 -14 L 45 -586 Q 45 -600 59 -600 L 209 -600 M 218 -469 Q 218 -479 211 -486 Q 204 -493 194 -493 L 162 -493 L 162 -322 L 194 -322 Q 204 -322 211 -329 Q 218 -336 218 -346 L 218 -469 "/>
    </symbol>
    <symbol overflow="visible" id="f0g101">
      <path d="M 276 -117 Q 290 -117 290 -103 L 290 -14 Q 290 0 276 0 L 59 0 Q 45 0 45 -14 L 45 -586 Q 45 -600 59 -600 L 276 -600 Q 290 -600 290 -586 L 290 -497 Q 290 -483 276 -483 L 162 -483 L 162 -369 L 261 -369 Q 275 -369 275 -355 L 275 -266 Q 275 -252 261 -252 L 162 -252 L 162 -117 L 276 -117 L 276 -117 "/>
    </symbol>
    <symbol overflow="visible" id="f0g78">
      <path d="M 351 -700 Q 365 -700 365 -686 L 365 -14 Q 365 0 351 0 L 287 0 Q 281 0 275 -4 Q 270 -8 268 -13 L 162 -344 L 162 -14 Q 162 0 148 0 L 59 0 Q 45 0 45 -14 L 45 -686 Q 45 -700 59 -700 L 125 -700 Q 131 -700 136 -696 Q 142 -692 144 -687 L 248 -366 L 248 -686 Q 248 -700 262 -700 L 351 -700 L 351 -700 "/>
    </symbol>
    <symbol overflow="visible" id="f0g103">
      <path d="M 199 -607 Q 225 -607 248 -597 Q 271 -587 288 -570 Q 305 -553 315 -530 Q 325 -507 325 -481 L 325 -459 Q 325 -445 312 -441 L 221 -408 Q 208 -404 208 -418 L 208 -476 Q 208 -486 201 -493 Q 194 -500 184 -500 L 176 -500 Q 166 -500 159 -493 Q 152 -486 152 -476 L 152 -124 Q 152 -114 159 -107 Q 166 -100 176 -100 L 184 -100 Q 194 -100 201 -107 Q 208 -114 208 -124 L 208 -232 L 180 -232 L 180 -346 L 311 -346 Q 325 -346 325 -332 L 325 -119 Q 325 -93 315 -70 Q 305 -47 288 -30 Q 271 -13 248 -3 Q 225 7 199 7 L 161 7 Q 135 7 112 -3 Q 89 -13 72 -30 Q 55 -47 45 -70 Q 35 -93 35 -119 L 35 -481 Q 35 -507 45 -530 Q 55 -553 72 -570 Q 89 -587 112 -597 Q 135 -607 161 -607 L 199 -607 L 199 -607 "/>
    </symbol>
    <symbol overflow="visible" id="f0g97">
      <path d="M 335 -14 Q 337 0 323 0 L 232 0 Q 219 0 217 -14 L 209 -112 L 147 -112 L 139 -14 Q 137 0 124 0 L 33 0 Q 19 0 21 -14 L 96 -586 Q 98 -600 112 -600 L 244 -600 Q 258 -600 260 -586 L 335 -14 M 201 -224 L 182 -445 L 174 -445 L 155 -224 L 201 -224 "/>
    </symbol>
    <symbol overflow="visible" id="f0g116">
      <path d="M 297 -600 Q 311 -600 311 -586 L 311 -497 Q 311 -483 297 -483 L 226 -483 L 226 -14 Q 226 0 212 0 L 123 0 Q 118 0 113 -4 Q 109 -8 109 -14 L 109 -483 L 39 -483 Q 25 -483 25 -497 L 25 -586 Q 25 -600 39 -600 L 297 -600 L 297 -600 "/>
    </symbol>
    <symbol overflow="visible" id="f0g105">
      <path d="M 162 -14 Q 162 0 148 0 L 59 0 Q 45 0 45 -14 L 45 -586 Q 45 -600 59 -600 L 148 -600 Q 162 -600 162 -586 L 162 -14 "/>
    </symbol>
    <symbol overflow="visible" id="f0g118">
      <path d="M 355 -600 Q 369 -600 367 -586 L 249 -14 Q 247 0 233 0 L 145 0 Q 131 0 129 -14 L 11 -586 Q 9 -600 23 -600 L 131 -600 Q 144 -600 146 -586 L 187 -212 L 191 -212 L 232 -586 Q 234 -600 247 -600 L 355 -600 L 355 -600 "/>
    </symbol>
  </defs>
  <a xlink:href="" target="_top">
    <t:tag>Slope</t:tag>
    <g transform="matrix(0.0402129,0.00709062,-0.00709062,0.0402129,118,103)" fill="#232625">
      <use xlink:href="#f0g83" x="0" y="0"/>
      <use xlink:href="#f0g108" x="350" y="0"/>
      <use xlink:href="#f0g111" x="665" y="0"/>
      <use xlink:href="#f0g112" x="1025" y="0"/>
      <use xlink:href="#f0g101" x="1380" y="0"/>
    </g>
  </a>
  <a xlink:href="" target="_top">
    <t:tag>Negative</t:tag>
    <g transform="matrix(0.0402129,0.00709062,-0.00709062,0.0402129,55,58.6119)" fill="#232625">
      <use xlink:href="#f0g78" x="0" y="0"/>
      <use xlink:href="#f0g101" x="410" y="0"/>
      <use xlink:href="#f0g103" x="740" y="0"/>
      <use xlink:href="#f0g97" x="1100" y="0"/>
      <use xlink:href="#f0g116" x="1426" y="0"/>
      <use xlink:href="#f0g105" x="1762" y="0"/>
      <use xlink:href="#f0g118" x="1969" y="0"/>
      <use xlink:href="#f0g101" x="2347" y="0"/>
    </g>
  </a>
</svg>