<svg width="100%" height="100%" viewBox="34.5722 36.5244 180.341 96.3516" version="1.1" xmlns="http://www.w3.org/2000/svg" xmlns:xlink="http://www.w3.org/1999/xlink" xmlns:t="http://www.tagul.com/schema">
  <defs>
    <symbol overflow="visible" id="f0g80">
      <path d="M 209 -700 Q 235 -700 258 -690 Q 281 -680 298 -663 Q 315 -646 325 -623 Q 335 -600 335 -574 L 335 -411 Q 335 -385 325 -362 Q 315 -339 298 -322 Q 281 -305 258 -295 Q 235 -285 209 -285 L 162 -285 L 162 -14 Q 162 0 148 0 L 59 0 Q 45 0 45 -14 L 45 -686 Q 45 -700 59 -700 L 209 -700 M 218 -569 Q 218 -579 211 -586 Q 204 -593 194 -593 L 162 -593 L 162 -392 L 194 -392 Q 204 -392 211 -399 Q 218 -406 218 -416 L 218 -569 "/>
    </symbol>
    <symbol overflow="visible" id="f0g111">
      <path d="M 325 -119 Q 325 -93 315 -70 Q 305 -47 288 -30 Q 271 -13 248 -3 Q 225 7 199 7 L 161 7 Q 135 7 112 -3 Q 89 -13 72 -30 Q 55 -47 45 -70 Q 35 -93 35 -119 L 35 -481 Q 35 -507 45 -530 Q 55 -553 72 -570 Q 89 -587 112 -597 Q 135 -607 161 -607 L 199 -607 Q 225 -607 248 -597 Q 271 -587 288 -570 Q 305 -553 315 -530 Q 325 -507 325 -481 L 325 -119 M 208 -476 Q 208 -486 201 -493 Q 194 -500 184 -500 L 176 -500 Q 166 -500 159 -493 Q 152 -486 152 -476 L 152 -124 Q 152 -114 159 -107 Q 166 -100 176 -100 L 184 -100 Q 194 -100 201 -107 Q 208 -114 208 -124 L 208 -476 "/>
    </symbol>
    <symbol overflow="visible" id="f0g115">
      <path d="M 194 -607 Q 220 -607 243 -597 Q 266 -587 283 -570 Q 300 -553 310 -530 Q 320 -507 320 -481 L 320 -443 Q 320 -429 307 -425 L 216 -401 Q 203 -397 203 -411 L 203 -476 Q 203 -486 196 -493 Q 189 -500 179 -500 L 171 -500 Q 161 -500 154 -493 Q 147 -486 147 -476 L 147 -415 Q 148 -404 151 -396 Q 154 -388 162 -380 L 293 -282 Q 309 -268 313 -253 Q 318 -239 320 -221 L 320 -119 Q 320 -93 310 -70 Q 300 -47 283 -30 Q 266 -13 243 -3 Q 220 7 194 7 L 156 7 Q 130 7 107 -3 Q 84 -13 67 -30 Q 50 -47 40 -70 Q 30 -93 30 -119 L 30 -175 Q 30 -189 43 -193 L 134 -217 Q 147 -221 147 -207 L 147 -124 Q 147 -114 154 -107 Q 161 -100 171 -100 L 179 -100 Q 189 -100 196 -107 Q 203 -114 203 -124 L 203 -186 Q 202 -199 199 -209 Q 196 -219 187 -227 L 58 -326 Q 43 -340 36 -354 Q 30 -368 30 -391 L 30 -481 Q 30 -507 40 -530 Q 50 -553 67 -570 Q 84 -587 107 -597 Q 130 -607 156 -607 L 194 -607 L 194 -607 "/>
    </symbol>
    <symbol overflow="visible" id="f0g105">
      <path d="M 162 -14 Q 162 0 148 0 L 59 0 Q 45 0 45 -14 L 45 -586 Q 45 -600 59 -600 L 148 -600 Q 162 -600 162 -586 L 162 -14 "/>
    </symbol>
    <symbol overflow="visible" id="f0g116">
      <path d="M 297 -600 Q 311 -600 311 -586 L 311 -497 Q 311 -483 297 -483 L 226 -483 L 226 -14 Q 226 0 212 0 L 123 0 Q 118 0 113 -4 Q 109 -8 109 -14 L 109 -483 L 39 -483 Q 25 -483 25 -497 L 25 -586 Q 25 -600 39 -600 L 297 -600 L 297 -600 "/>
    </symbol>
    <symbol overflow="visible" id="f0g118">
      <path d="M 355 -600 Q 369 -600 367 -586 L 249 -14 Q 247 0 233 0 L 145 0 Q 131 0 129 -14 L 11 -586 Q 9 -600 23 -600 L 131 -600 Q 144 -600 146 -586 L 187 -212 L 191 -212 L 232 -586 Q 234 -600 247 -600 L 355 -600 L 355 -600 "/>
    </symbol>
    <symbol overflow="visible" id="f0g101">
      <path d="M 276 -117 Q 290 -117 290 -103 L 290 -14 Q 290 0 276 0 L 59 0 Q 45 0 45 -14 L 45 -586 Q 45 -600 59 -600 L 276 -600 Q 290 -600 290 -586 L 290 -497 Q 290 -483 276 -483 L 162 -483 L 162 -369 L 261 -369 Q 275 -369 275 -355 L 275 -266 Q 275 -252 261 -252 L 162 -252 L 162 -117 L 276 -117 L 276 -117 "/>
    </symbol>
    <symbol overflow="visible" id="f0g83">
      <path d="M 194 -707 Q 220 -707 243 -697 Q 266 -687 283 -670 Q 300 -653 310 -630 Q 320 -607 320 -581 L 320 -543 Q 320 -529 307 -525 L 216 -501 Q 203 -497 203 -511 L 203 -576 Q 203 -586 196 -593 Q 189 -600 179 -600 L 171 -600 Q 161 -600 154 -593 Q 147 -586 147 -576 L 147 -485 Q 148 -474 151 -466 Q 154 -458 162 -450 L 293 -352 Q 309 -338 313 -323 Q 318 -309 320 -291 L 320 -119 Q 320 -93 310 -70 Q 300 -47 283 -30 Q 266 -13 243 -3 Q 220 7 194 7 L 156 7 Q 130 7 107 -3 Q 84 -13 67 -30 Q 50 -47 40 -70 Q 30 -93 30 -119 L 30 -215 Q 30 -229 43 -233 L 134 -257 Q 147 -261 147 -247 L 147 -124 Q 147 -114 154 -107 Q 161 -100 171 -100 L 179 -100 Q 189 -100 196 -107 Q 203 -114 203 -124 L 203 -256 Q 202 -269 199 -279 Q 196 -289 187 -297 L 58 -396 Q 43 -410 36 -424 Q 30 -438 30 -461 L 30 -581 Q 30 -607 40 -630 Q 50 -653 67 -670 Q 84 -687 107 -697 Q 130 -707 156 -707 L 194 -707 L 194 -707 "/>
    </symbol>
    <symbol overflow="visible" id="f0g108">
      <path d="M 291 -117 Q 305 -117 305 -103 L 305 -14 Q 305 0 291 0 L 156 0 L 154 0 L 153 0 L 64 0 Q 50 0 50 -14 L 50 -586 Q 50 -600 64 -600 L 153 -600 Q 167 -600 167 -586 L 167 -117 L 291 -117 L 291 -117 "/>
    </symbol>
    <symbol overflow="visible" id="f0g112">
      <path d="M 209 -600 Q 235 -600 258 -590 Q 281 -580 298 -563 Q 315 -546 325 -523 Q 335 -500 335 -474 L 335 -341 Q 335 -315 325 -292 Q 315 -269 298 -252 Q 281 -235 258 -225 Q 235 -215 209 -215 L 162 -215 L 162 -14 Q 162 0 148 0 L 59 0 Q 45 0 45 -14 L 45 -586 Q 45 -600 59 -600 L 209 -600 M 218 -469 Q 218 -479 211 -486 Q 204 -493 194 -493 L 162 -493 L 162 -322 L 194 -322 Q 204 -322 211 -329 Q 218 -336 218 -346 L 218 -469 "/>
    </symbol>
  </defs>
  <a xlink:href="" target="_top">
    <t:tag>Positive</t:tag>
    <g transform="matrix(0.0462355,-0.0168283,0.0168283,0.0462355,52.4318,118.587)" fill="#232625" t:f="1">
      <use xlink:href="#f0g80" x="0" y="0"/>
      <use xlink:href="#f0g111" x="355" y="0"/>
      <use xlink:href="#f0g115" x="715" y="0"/>
      <use xlink:href="#f0g105" x="1065" y="0"/>
      <use xlink:href="#f0g116" x="1272" y="0"/>
      <use xlink:href="#f0g105" x="1608" y="0"/>
      <use xlink:href="#f0g118" x="1815" y="0"/>
      <use xlink:href="#f0g101" x="2193" y="0"/>
    </g>
  </a>
  <a xlink:href="" target="_top">
    <t:tag>Slope</t:tag>
    <g transform="matrix(0.0417366,-0.0151909,0.0151909,0.0417366,137.472,125.538)" fill="#232625" t:f="1">
      <use xlink:href="#f0g83" x="0" y="0"/>
      <use xlink:href="#f0g108" x="350" y="0"/>
      <use xlink:href="#f0g111" x="665" y="0"/>
      <use xlink:href="#f0g112" x="1025" y="0"/>
      <use xlink:href="#f0g101" x="1380" y="0"/>
    </g>
  </a>
</svg>