<svg width="100%" height="100%" viewBox="29.8516 32.4343 222.547 213.334" version="1.1" xmlns="http://www.w3.org/2000/svg" xmlns:xlink="http://www.w3.org/1999/xlink" xmlns:t="http://www.tagul.com/schema">
  <defs>
    <symbol overflow="visible" id="f5g82">
      <path d="M 355 -14 Q 358 0 345 0 L 254 0 Q 248 0 242 -4 Q 237 -8 235 -14 L 162 -259 L 162 0 L 161 -10 Q 159 0 148 0 L 59 0 Q 45 0 45 -14 L 45 -686 Q 45 -700 59 -700 L 209 -700 Q 235 -700 258 -690 Q 281 -680 298 -663 Q 315 -646 325 -623 Q 335 -600 335 -574 L 335 -411 Q 335 -374 316 -344 Q 297 -315 266 -299 L 355 -14 M 162 -392 L 194 -392 Q 204 -392 211 -399 Q 218 -406 218 -416 L 218 -569 Q 218 -579 211 -586 Q 204 -593 194 -593 L 162 -593 L 162 -392 "/>
    </symbol>
    <symbol overflow="visible" id="f5g97">
      <path d="M 335 -14 Q 337 0 323 0 L 232 0 Q 219 0 217 -14 L 209 -112 L 147 -112 L 139 -14 Q 137 0 124 0 L 33 0 Q 19 0 21 -14 L 96 -586 Q 98 -600 112 -600 L 244 -600 Q 258 -600 260 -586 L 335 -14 M 201 -224 L 182 -445 L 174 -445 L 155 -224 L 201 -224 "/>
    </symbol>
    <symbol overflow="visible" id="f5g110">
      <path d="M 351 -600 Q 365 -600 365 -586 L 365 -14 Q 365 0 351 0 L 287 0 Q 281 0 275 -4 Q 270 -8 268 -13 L 162 -274 L 162 -14 Q 162 0 148 0 L 59 0 Q 45 0 45 -14 L 45 -586 Q 45 -600 59 -600 L 125 -600 Q 131 -600 136 -596 Q 142 -592 144 -587 L 248 -296 L 248 -586 Q 248 -600 262 -600 L 351 -600 L 351 -600 "/>
    </symbol>
    <symbol overflow="visible" id="f5g100">
      <path d="M 209 -600 Q 235 -600 258 -590 Q 281 -580 298 -563 Q 315 -546 325 -523 Q 335 -500 335 -474 L 335 -126 Q 335 -100 325 -77 Q 315 -54 298 -37 Q 281 -20 258 -10 Q 235 0 209 0 L 59 0 Q 45 0 45 -14 L 45 -586 Q 45 -600 59 -600 L 209 -600 M 218 -469 Q 218 -479 211 -486 Q 204 -493 194 -493 L 162 -493 L 162 -107 L 194 -107 Q 204 -107 211 -114 Q 218 -121 218 -131 L 218 -469 "/>
    </symbol>
    <symbol overflow="visible" id="f5g111">
      <path d="M 325 -119 Q 325 -93 315 -70 Q 305 -47 288 -30 Q 271 -13 248 -3 Q 225 7 199 7 L 161 7 Q 135 7 112 -3 Q 89 -13 72 -30 Q 55 -47 45 -70 Q 35 -93 35 -119 L 35 -481 Q 35 -507 45 -530 Q 55 -553 72 -570 Q 89 -587 112 -597 Q 135 -607 161 -607 L 199 -607 Q 225 -607 248 -597 Q 271 -587 288 -570 Q 305 -553 315 -530 Q 325 -507 325 -481 L 325 -119 M 208 -476 Q 208 -486 201 -493 Q 194 -500 184 -500 L 176 -500 Q 166 -500 159 -493 Q 152 -486 152 -476 L 152 -124 Q 152 -114 159 -107 Q 166 -100 176 -100 L 184 -100 Q 194 -100 201 -107 Q 208 -114 208 -124 L 208 -476 "/>
    </symbol>
    <symbol overflow="visible" id="f5g109">
      <path d="M 421 -600 Q 435 -600 435 -586 L 435 -14 Q 435 0 421 0 L 325 0 Q 311 0 311 -14 L 311 -280 L 245 -42 Q 243 -37 240 -37 Q 237 -37 235 -42 L 169 -280 L 169 -14 Q 169 0 155 0 L 59 0 Q 45 0 45 -14 L 45 -586 Q 45 -600 59 -600 L 144 -600 Q 150 -600 154 -595 Q 159 -591 161 -586 L 240 -278 L 319 -586 Q 321 -591 325 -595 Q 330 -600 336 -600 L 421 -600 L 421 -600 "/>
    </symbol>
  </defs>
  <a xlink:href="" target="_top">
    <t:tag>Random</t:tag>
    <g transform="matrix(0.0835302,0.0132299,-0.0132299,0.0835302,38.8854,202.416)" fill="#232625" t:f="1">
      <use xlink:href="#f5g82" x="0" y="0"/>
      <use xlink:href="#f5g97" x="376" y="0"/>
      <use xlink:href="#f5g110" x="732" y="0"/>
      <use xlink:href="#f5g100" x="1142" y="0"/>
      <use xlink:href="#f5g111" x="1512" y="0"/>
      <use xlink:href="#f5g109" x="1872" y="0"/>
    </g>
  </a>
  <a xlink:href="" target="_top">
    <t:tag>Random</t:tag>
    <g transform="matrix(0.0318064,-0.0471549,0.0471549,0.0318064,180,160)" fill="#232625">
      <use xlink:href="#f5g82" x="0" y="0"/>
      <use xlink:href="#f5g97" x="376" y="0"/>
      <use xlink:href="#f5g110" x="732" y="0"/>
      <use xlink:href="#f5g100" x="1142" y="0"/>
      <use xlink:href="#f5g111" x="1512" y="0"/>
      <use xlink:href="#f5g109" x="1872" y="0"/>
    </g>
  </a>
  <a xlink:href="" target="_top">
    <t:tag>Random</t:tag>
    <g transform="matrix(0.0588521,0.00514889,-0.00514889,0.0588521,39.0238,84.6053)" fill="#232625">
      <use xlink:href="#f5g82" x="0" y="0"/>
      <use xlink:href="#f5g97" x="376" y="0"/>
      <use xlink:href="#f5g110" x="732" y="0"/>
      <use xlink:href="#f5g100" x="1142" y="0"/>
      <use xlink:href="#f5g111" x="1512" y="0"/>
      <use xlink:href="#f5g109" x="1872" y="0"/>
    </g>
  </a>
</svg>